<?xml version="1.0" encoding="UTF-8" ?>
<!DOCTYPE svg PUBLIC "-//W3C//DTD SVG 1.1//EN" "http://www.w3.org/Graphics/SVG/1.1/DTD/svg11.dtd">
<svg width="1429pt" height="924pt" viewBox="0 0 1429 924" version="1.1" xmlns="http://www.w3.org/2000/svg">
<g id="#ffffffff">
<path fill="#ffffff" opacity="1.00" d=" M 653.49 21.42 C 671.34 8.85 693.15 2.06 714.97 2.21 C 736.48 2.25 757.92 9.03 775.52 21.41 C 786.69 29.07 795.52 39.46 805.22 48.81 C 1002.22 245.82 1199.24 442.81 1396.23 639.83 C 1421.31 665.24 1431.97 703.73 1423.58 738.43 C 1419.20 757.36 1409.42 774.97 1395.71 788.73 C 1367.05 817.40 1338.37 846.07 1309.70 874.74 C 1299.89 884.23 1290.91 894.74 1279.53 902.44 C 1260.82 915.45 1237.84 922.14 1215.08 921.28 C 1194.92 920.61 1174.99 914.04 1158.45 902.49 C 1147.28 894.87 1138.44 884.52 1128.77 875.19 C 990.60 737.32 852.45 599.44 714.29 461.56 C 577.32 598.51 440.37 735.47 303.42 872.42 C 292.34 883.02 282.40 895.01 269.54 903.54 C 252.10 915.37 231.09 921.80 210.03 921.79 C 189.18 921.88 168.35 915.65 151.03 904.03 C 140.23 897.07 131.67 887.39 122.56 878.47 C 92.99 849.05 63.44 819.61 33.88 790.18 C 23.02 779.44 14.49 766.37 9.10 752.08 C 1.49 732.05 0.14 709.71 5.26 688.90 C 9.80 670.20 19.64 652.84 33.30 639.29 C 229.79 442.80 426.28 246.31 622.77 49.82 C 632.82 40.16 641.94 29.37 653.49 21.42 Z" />
</g>
</svg>
