<?xml version="1.0" encoding="UTF-8" ?>
<!DOCTYPE svg PUBLIC "-//W3C//DTD SVG 1.1//EN" "http://www.w3.org/Graphics/SVG/1.1/DTD/svg11.dtd">
<svg width="1429pt" height="1006pt" viewBox="0 0 1429 1006" version="1.1" xmlns="http://www.w3.org/2000/svg">
<g id="#ffffffff">
<path fill="#ffffff" opacity="1.00" d=" M 673.33 1.48 C 727.88 0.98 782.43 1.62 836.97 2.44 C 925.66 3.95 1014.36 6.33 1102.91 11.63 C 1146.73 14.41 1190.58 17.56 1234.04 23.92 C 1255.18 27.11 1276.46 31.15 1296.09 39.93 C 1338.78 58.40 1373.47 94.30 1390.63 137.52 C 1397.41 154.30 1401.08 172.12 1404.59 189.82 C 1412.76 233.48 1417.07 277.75 1420.41 322.00 C 1423.94 370.60 1425.92 419.31 1426.87 468.02 C 1427.99 519.31 1426.42 570.61 1424.18 621.84 C 1421.95 668.66 1418.73 715.45 1413.07 761.99 C 1409.90 787.52 1406.06 813.00 1400.25 838.07 C 1396.50 855.00 1390.91 871.59 1382.60 886.85 C 1360.73 927.96 1321.64 959.09 1277.12 972.37 C 1256.54 978.47 1235.18 981.34 1213.94 984.11 C 1164.82 990.05 1115.41 993.11 1066.03 995.72 C 960.75 1000.94 855.34 1003.01 749.95 1003.85 C 696.30 1004.27 642.64 1003.62 589.00 1002.80 C 522.66 1001.69 456.32 999.97 390.03 997.03 C 330.64 994.23 271.19 991.02 212.15 983.80 C 194.69 981.53 177.23 979.00 160.12 974.78 C 125.71 966.20 93.82 947.43 70.07 921.03 C 50.58 899.55 36.74 873.07 29.98 844.88 C 19.84 803.62 14.97 761.28 10.94 719.05 C 6.08 665.55 3.51 611.86 2.12 558.17 C 0.30 498.44 1.90 438.66 4.71 378.99 C 7.20 329.51 10.75 280.04 17.36 230.92 C 20.99 204.91 25.26 178.90 32.37 153.59 C 46.15 105.99 80.71 64.94 125.27 43.27 C 144.61 33.54 165.84 28.43 187.11 25.09 C 235.34 17.51 284.13 14.23 332.82 11.20 C 446.20 4.74 559.78 2.49 673.33 1.48 M 568.47 291.68 C 568.44 433.00 568.51 574.32 568.43 715.64 C 692.67 645.02 816.88 574.34 941.08 503.64 C 816.86 433.00 692.68 362.31 568.47 291.68 Z" />
</g>
</svg>
